<svg xmlns="http://www.w3.org/2000/svg" width="895" height="895" viewBox="0 0 895 895">
  <defs>
    <style>
      .cls-1 {
        fill: #fff;
      }

      .cls-1, .cls-2 {
        fill-rule: evenodd;
      }
    </style>
  </defs>
  <path class="cls-1" d="M758,629V798c0,17.024,4.7,50.323-8,55-6.685,3.856-12.431-3.407-16-6-14.561-10.577-24.478-27.379-35-42-31.585-43.89-68.994-84.421-101-128-9.1-12.384-19.1-23.887-28-36-2.2-3-4.829-10.351-8-12H98c-4.042-2.662-10.308-2.029-15-4-16.1-6.763-31.243-20.911-38-37-10.4-24.76-5-79.268-5-113V141c0-13.7-2.181-31.02,1-43,3.472-13.079,9.784-23.629,17-33,8.105-10.525,25.01-17.523,40-21H745c17.629,0,41.371-3.332,57,1,25.5,7.068,43.124,24.275,51,49,3.9,12.243,2,30.792,2,46V488c0,41.651,4.454,89.842-13,114C824.39,626.373,800.4,629.23,758,629Z"/>
  <path id="VR" class="cls-2" d="M269.884,499.961q3.964,11.418,15.627,16.619a63.125,63.125,0,0,0,26.046,5.209,64.906,64.906,0,0,0,26.294-5.209q11.907-5.208,15.38-16.619l95.253-312.054a29.975,29.975,0,0,0,.992-4.961,16.135,16.135,0,0,0-3.969-10.667,41.926,41.926,0,0,0-9.922-8.434,49.65,49.65,0,0,0-13.147-5.705,51.589,51.589,0,0,0-13.643-1.984q-8.442,0-14.139,2.976a15.309,15.309,0,0,0-7.69,9.922L311.557,437.947,235.652,169.054a15.354,15.354,0,0,0-7.689-9.922q-5.709-2.976-14.14-2.976a51.509,51.509,0,0,0-13.643,1.984,55.269,55.269,0,0,0-13.147,5.457,35.455,35.455,0,0,0-9.922,8.434,17.055,17.055,0,0,0-3.969,10.915,29.137,29.137,0,0,0,.993,4.961Zm213.824-1.489q0,9.93,10.17,15.132a49.914,49.914,0,0,0,44.4,0q9.918-5.21,9.922-15.132V368.987h41.674l70.447,136.927A31.641,31.641,0,0,0,670,517.324a21.647,21.647,0,0,0,12.65,3.969,36.836,36.836,0,0,0,14.14-2.976,50.341,50.341,0,0,0,12.9-7.69,42.312,42.312,0,0,0,9.426-10.914,23.554,23.554,0,0,0,3.72-12.155,18.076,18.076,0,0,0-.5-3.721,11,11,0,0,0-1.984-4.217L655.362,359.065q27.779-8.43,46.387-32.5t18.6-66.727q0-29.768-9.178-49.611t-25.3-31.751a103.735,103.735,0,0,0-37.456-17.116,192,192,0,0,0-45.642-5.209h-98.23q-9.431,0-15.132,5.953a19.444,19.444,0,0,0-5.7,13.891V498.472Zm119.067-285.76q24.3,0,38.7,11.907T655.858,265.8q0,29.279-14.387,40.929t-38.7,11.659H548.2V212.712h54.573Z"/>
</svg>
